<svg xmlns="http://www.w3.org/2000/svg" xmlns:xlink="http://www.w3.org/1999/xlink" width="500" zoomAndPan="magnify" viewBox="0 0 375 374.999991" height="500" preserveAspectRatio="xMidYMid meet" version="1.0"><defs><clipPath id="b5784992ab"><path d="M 104.203125 144 L 163 144 L 163 230 L 104.203125 230 Z M 104.203125 144 " clip-rule="nonzero"/></clipPath><clipPath id="e8cdcf4a79"><path d="M 212 144 L 270.703125 144 L 270.703125 230 L 212 230 Z M 212 144 " clip-rule="nonzero"/></clipPath><clipPath id="71f0c1a0c8"><path d="M 158 122.832031 L 216 122.832031 L 216 251.832031 L 158 251.832031 Z M 158 122.832031 " clip-rule="nonzero"/></clipPath></defs><rect x="-37.5" width="450" fill="#ffffff" y="-37.499999" height="449.999989" fill-opacity="1"/><rect x="-37.5" width="450" fill="#ffffff" y="-37.499999" height="449.999989" fill-opacity="1"/><rect x="-37.5" width="450" fill="#ffffff" y="-37.499999" height="449.999989" fill-opacity="1"/><path fill="#5e17eb" d="M 156.730469 228.007812 C 155.8125 228.007812 154.90625 227.699219 154.183594 227.125 L 107.617188 190.5625 C 106.613281 189.777344 106.042969 188.601562 106.042969 187.332031 C 106.042969 186.0625 106.613281 184.886719 107.613281 184.09375 L 154.183594 147.539062 C 154.90625 146.964844 155.8125 146.65625 156.730469 146.65625 C 158.003906 146.65625 159.191406 147.222656 159.972656 148.226562 C 160.652344 149.085938 160.960938 150.167969 160.828125 151.253906 C 160.703125 152.347656 160.148438 153.320312 159.28125 154.003906 L 116.84375 187.332031 L 159.28125 220.65625 C 160.148438 221.339844 160.703125 222.316406 160.828125 223.402344 C 160.960938 224.496094 160.652344 225.570312 159.972656 226.4375 C 159.191406 227.433594 158.003906 228.007812 156.730469 228.007812 " fill-opacity="1" fill-rule="nonzero"/><g clip-path="url(#b5784992ab)"><path fill="#5e17eb" d="M 156.730469 144.902344 C 155.417969 144.902344 154.132812 145.34375 153.101562 146.15625 L 106.53125 182.71875 C 105.101562 183.847656 104.285156 185.523438 104.285156 187.332031 C 104.285156 189.140625 105.105469 190.824219 106.53125 191.945312 L 153.101562 228.507812 C 154.125 229.3125 155.417969 229.761719 156.730469 229.761719 C 158.550781 229.761719 160.238281 228.941406 161.355469 227.519531 C 162.332031 226.292969 162.761719 224.753906 162.578125 223.199219 C 162.386719 221.644531 161.609375 220.246094 160.371094 219.28125 L 119.679688 187.332031 L 160.371094 155.382812 C 161.609375 154.410156 162.386719 153.019531 162.578125 151.464844 C 162.761719 149.90625 162.332031 148.371094 161.355469 147.136719 C 160.238281 145.714844 158.542969 144.902344 156.730469 144.902344 Z M 156.730469 148.40625 C 157.433594 148.40625 158.128906 148.714844 158.59375 149.304688 C 159.410156 150.335938 159.226562 151.820312 158.199219 152.628906 L 113.996094 187.332031 L 158.199219 222.035156 C 159.226562 222.84375 159.410156 224.328125 158.59375 225.351562 C 158.128906 225.949219 157.433594 226.257812 156.730469 226.257812 C 156.21875 226.257812 155.707031 226.09375 155.269531 225.75 L 108.699219 189.191406 C 108.132812 188.742188 107.796875 188.054688 107.796875 187.332031 C 107.796875 186.601562 108.132812 185.921875 108.699219 185.472656 L 155.269531 148.914062 C 155.699219 148.570312 156.21875 148.40625 156.730469 148.40625 " fill-opacity="1" fill-rule="nonzero"/></g><path fill="#5e17eb" d="M 218.175781 228.007812 C 216.902344 228.007812 215.722656 227.433594 214.929688 226.4375 C 213.523438 224.65625 213.832031 222.0625 215.625 220.65625 L 258.070312 187.332031 L 215.625 154.003906 C 213.832031 152.601562 213.523438 150.007812 214.929688 148.226562 C 215.722656 147.222656 216.902344 146.65625 218.175781 146.65625 C 219.09375 146.65625 220 146.964844 220.726562 147.539062 L 267.296875 184.09375 C 268.292969 184.886719 268.863281 186.0625 268.863281 187.332031 C 268.863281 188.601562 268.292969 189.777344 267.289062 190.5625 L 220.726562 227.125 C 220 227.699219 219.09375 228.007812 218.175781 228.007812 " fill-opacity="1" fill-rule="nonzero"/><g clip-path="url(#e8cdcf4a79)"><path fill="#5e17eb" d="M 218.175781 144.902344 C 216.363281 144.902344 214.675781 145.714844 213.550781 147.136719 C 211.542969 149.683594 211.984375 153.378906 214.535156 155.382812 L 255.226562 187.332031 L 214.535156 219.28125 C 211.984375 221.277344 211.542969 224.980469 213.550781 227.519531 C 214.675781 228.941406 216.363281 229.761719 218.175781 229.761719 C 219.488281 229.761719 220.773438 229.3125 221.808594 228.507812 L 268.378906 191.945312 C 269.804688 190.824219 270.617188 189.140625 270.617188 187.332031 C 270.617188 185.523438 269.804688 183.847656 268.382812 182.71875 L 221.8125 146.15625 C 220.78125 145.34375 219.488281 144.902344 218.175781 144.902344 Z M 218.175781 148.40625 C 218.6875 148.40625 219.207031 148.570312 219.636719 148.914062 L 266.207031 185.472656 C 266.777344 185.921875 267.105469 186.601562 267.105469 187.332031 C 267.105469 188.054688 266.777344 188.742188 266.207031 189.191406 L 219.636719 225.75 C 219.207031 226.09375 218.6875 226.257812 218.175781 226.257812 C 217.472656 226.257812 216.777344 225.949219 216.3125 225.351562 C 215.503906 224.328125 215.679688 222.84375 216.707031 222.035156 L 260.910156 187.332031 L 216.707031 152.628906 C 215.679688 151.820312 215.503906 150.335938 216.3125 149.304688 C 216.777344 148.714844 217.480469 148.40625 218.175781 148.40625 " fill-opacity="1" fill-rule="nonzero"/></g><path fill="#5e17eb" d="M 164.3125 250.070312 C 163.800781 250.070312 163.300781 249.972656 162.824219 249.792969 C 161.796875 249.390625 160.984375 248.621094 160.539062 247.617188 C 160.089844 246.609375 160.070312 245.492188 160.460938 244.46875 L 205.945312 127.21875 C 206.554688 125.648438 208.101562 124.589844 209.785156 124.589844 C 210.300781 124.589844 210.804688 124.691406 211.285156 124.871094 C 213.398438 125.691406 214.457031 128.082031 213.636719 130.199219 L 168.164062 247.441406 C 167.550781 249.011719 166 250.070312 164.3125 250.070312 " fill-opacity="1" fill-rule="nonzero"/><g clip-path="url(#71f0c1a0c8)"><path fill="#5e17eb" d="M 209.785156 122.839844 C 207.378906 122.839844 205.171875 124.351562 204.308594 126.589844 L 158.824219 243.832031 C 158.265625 245.296875 158.300781 246.890625 158.929688 248.328125 C 159.570312 249.757812 160.722656 250.863281 162.191406 251.425781 C 162.871094 251.691406 163.582031 251.824219 164.3125 251.824219 C 166.722656 251.824219 168.929688 250.316406 169.800781 248.074219 L 215.273438 130.832031 C 216.445312 127.808594 214.9375 124.402344 211.910156 123.238281 C 211.234375 122.972656 210.519531 122.839844 209.785156 122.839844 Z M 209.785156 126.34375 C 210.074219 126.34375 210.363281 126.398438 210.644531 126.503906 C 211.867188 126.976562 212.46875 128.34375 212 129.5625 L 166.519531 246.804688 C 166.160156 247.746094 165.261719 248.320312 164.3125 248.320312 C 164.023438 248.320312 163.738281 248.269531 163.457031 248.15625 C 162.234375 247.6875 161.628906 246.3125 162.105469 245.101562 L 207.582031 127.859375 C 207.945312 126.917969 208.839844 126.34375 209.785156 126.34375 " fill-opacity="1" fill-rule="nonzero"/></g></svg>